<?xml version="1.0" encoding="utf-8"?>
<!-- Svg Vector Icons : http://www.onlinewebfonts.com/icon -->
<!DOCTYPE svg PUBLIC "-//W3C//DTD SVG 1.1//EN" "http://www.w3.org/Graphics/SVG/1.1/DTD/svg11.dtd">
<svg version="1.1" xmlns="http://www.w3.org/2000/svg" xmlns:xlink="http://www.w3.org/1999/xlink" x="0px" y="0px" viewBox="0 0 256 256" enable-background="new 0 0 256 256" xml:space="preserve">
<metadata> Svg Vector Icons : http://www.onlinewebfonts.com/icon </metadata>
<g><g><path fill="#EEEEEE" d="M144.1,162c-12.8,0-25.7-4.9-35.5-14.7c-2.6-2.6-2.6-7,0-9.6s7-2.6,9.6,0c14.3,14.3,37.4,14.3,51.7,0l49.5-49.5c14.3-14.3,14.3-37.4,0-51.7c-14.3-14.3-37.4-14.3-51.7,0L126,78.3c-2.6,2.6-7,2.6-9.6,0s-2.6-7,0-9.6l41.8-41.8c19.6-19.6,51.4-19.6,70.9,0s19.6,51.4,0,70.9l-49.5,49.5C169.8,157.1,156.9,162,144.1,162L144.1,162L144.1,162z M62.4,243.7c-12.8,0-25.7-4.9-35.5-14.7c-19.6-19.6-19.6-51.4,0-70.9l49.5-49.5c19.6-19.6,51.4-19.6,70.9,0c2.6,2.6,2.6,7,0,9.6s-7,2.6-9.6,0c-14.3-14.3-37.4-14.3-51.7,0l-49.5,49.5c-14.3,14.3-14.3,37.4,0,51.7c14.2,14.3,37.4,14.3,51.7,0l41.8-41.8c2.7-2.6,7-2.6,9.6,0c2.7,2.6,2.7,7,0,9.6l-41.8,41.8C88.1,238.8,75.2,243.7,62.4,243.7L62.4,243.7L62.4,243.7z"/><path fill="#EEEEEE" d="M62.4,246L62.4,246c-14,0-27.2-5.4-37.1-15.3c-9.9-9.9-15.3-23-15.3-37.1c0-14,5.4-27.2,15.3-37.1L74.9,107c9.9-9.9,23-15.3,37.1-15.3c14,0,27.2,5.4,37.1,15.3c3.5,3.5,3.5,9.3,0,12.8c-1.7,1.7-4,2.6-6.4,2.6c-2.4,0-4.7-0.9-6.4-2.6c-6.5-6.5-15.1-10-24.2-10s-17.8,3.6-24.2,10l-49.6,49.5c-6.5,6.5-10,15.1-10,24.2c0,9.2,3.6,17.8,10,24.2c6.5,6.5,15.1,10,24.2,10c9.2,0,17.8-3.6,24.2-10l41.8-41.8c1.7-1.7,4-2.6,6.4-2.6s4.7,0.9,6.4,2.6c1.7,1.7,2.6,4,2.6,6.4c0,2.4-0.9,4.7-2.6,6.4l-41.8,41.8C89.6,240.6,76.4,246,62.4,246L62.4,246z M111.9,96.2c-12.8,0-24.8,5-33.9,14l-49.5,49.5c-9,9-14,21-14,33.9c0,12.8,5,24.8,14,33.9c9,9,21,14,33.9,14c12.8,0,24.8-5,33.9-14l41.8-41.8c0.9-0.9,1.3-2,1.3-3.2c0-1.2-0.5-2.4-1.3-3.2c-0.9-0.9-2-1.3-3.2-1.3c-1.2,0-2.4,0.5-3.2,1.3l-41.8,41.8c-7.3,7.3-17.1,11.3-27.4,11.3c-10.4,0-20.1-4-27.4-11.3c-7.3-7.3-11.3-17.1-11.3-27.4c0-10.4,4-20.1,11.3-27.4l49.5-49.5c7.3-7.3,17-11.3,27.4-11.3c10.4,0,20.1,4,27.4,11.3c0.9,0.9,2,1.3,3.2,1.3c1.2,0,2.4-0.5,3.2-1.3c1.8-1.8,1.8-4.6,0-6.4C136.7,101.2,124.7,96.2,111.9,96.2z M144.1,164.3L144.1,164.3c-14,0-27.2-5.4-37.1-15.3c-1.7-1.7-2.6-4-2.6-6.4s0.9-4.7,2.6-6.4c1.7-1.7,4-2.6,6.4-2.6l0,0c2.4,0,4.7,0.9,6.4,2.6c6.5,6.5,15.1,10,24.2,10c9.2,0,17.8-3.6,24.2-10l49.5-49.5c13.4-13.4,13.4-35.1,0-48.5c-6.5-6.5-15.1-10-24.2-10c-9.2,0-17.8,3.6-24.2,10l-41.8,41.8c-1.7,1.7-4,2.6-6.4,2.6c-2.4,0-4.7-0.9-6.4-2.6c-3.5-3.5-3.5-9.3,0-12.8l41.8-41.8c9.9-9.9,23-15.3,37.1-15.3c14,0,27.2,5.4,37.1,15.3c9.9,9.9,15.3,23,15.3,37.1c0,14-5.4,27.2-15.3,37.1L181.1,149C171.3,158.8,158.1,164.3,144.1,164.3L144.1,164.3z M113.5,138c-1.2,0-2.4,0.5-3.2,1.3c-0.9,0.9-1.3,2-1.3,3.2c0,1.2,0.5,2.4,1.3,3.2c9,9,21,14,33.9,14c12.8,0,24.8-5,33.9-14l49.5-49.5c9-9,14-21,14-33.9c0-12.8-5-24.8-14-33.9c-9-9-21-14-33.9-14c-12.8,0-24.8,5-33.9,14L118,70.3c-1.8,1.8-1.8,4.6,0,6.4c0.9,0.9,2,1.3,3.2,1.3s2.4-0.5,3.2-1.3l41.8-41.8c7.3-7.3,17-11.3,27.4-11.3c10.4,0,20.1,4,27.4,11.3c15.1,15.1,15.1,39.7,0,54.9l-49.5,49.5c-7.3,7.3-17,11.3-27.4,11.3s-20.1-4-27.4-11.3C115.8,138.5,114.7,138,113.5,138z"/></g></g>
</svg>